<svg xmlns="http://www.w3.org/2000/svg" aria-hidden="true" overflow="hidden" style="position:absolute;width:0;height:0">
    <defs>
        <symbol id="icon-instagram" viewBox="0 0 32 32">
            <path d="M16 10.25a5.746 5.746 0 0 0-5.312 3.55 5.75 5.75 0 1 0 5.313-3.549zm0 10a4.248 4.248 0 0 1-3.005-7.255 4.253 4.253 0 0 1 6.539.644A4.25 4.25 0 0 1 20.25 16 4.265 4.265 0 0 1 16 20.25zm5.5-16.5h-11a6.75 6.75 0 0 0-6.75 6.75v11a6.75 6.75 0 0 0 6.75 6.75h11a6.75 6.75 0 0 0 6.75-6.75v-11a6.75 6.75 0 0 0-6.75-6.75zm5.25 17.75a5.247 5.247 0 0 1-5.25 5.25h-11a5.247 5.247 0 0 1-5.25-5.25v-11a5.247 5.247 0 0 1 5.25-5.25h11a5.247 5.247 0 0 1 5.25 5.25v11zm-3-12a1.243 1.243 0 0 1-.772 1.154 1.249 1.249 0 0 1-1.173-2.194 1.254 1.254 0 0 1 1.579.155c.235.234.366.552.366.884z"/>
        </symbol>
        <symbol id="icon-facebook" viewBox="0 0 32 32">
            <path d="M23.987 2.128a37.26 37.26 0 0 0-4.049-.208c-4.484 0-7.271 2.856-7.271 7.453v3.121H8.9a.665.665 0 0 0-.666.666v5.133a.665.665 0 0 0 .666.666h3.767v10.293a.665.665 0 0 0 .666.666h5.304a.665.665 0 0 0 .666-.666V18.959h3.755a.662.662 0 0 0 .661-.58l.663-5.133a.662.662 0 0 0-.386-.694.65.65 0 0 0-.275-.059h-4.417V9.881c0-1.293.26-1.833 1.877-1.833H23.9a.665.665 0 0 0 .666-.666V2.789a.662.662 0 0 0-.58-.661zm-.754 4.587-2.053.001c-2.876 0-3.209 1.808-3.209 3.167v3.28a.665.665 0 0 0 .666.667h4.328l-.492 3.8h-3.835a.665.665 0 0 0-.666.666v10.291h-3.971V18.296a.665.665 0 0 0-.666-.666H9.57v-3.8h3.765a.665.665 0 0 0 .666-.666V9.375c0-3.832 2.22-6.12 5.937-6.12 1.345 0 2.56.073 3.296.137v3.324z"/>
        </symbol>
        <symbol id="icon-phone" viewBox="0 0 32 32">
            <path d="m27.655 22.957-.173-.216c-1.372-1.735-2.519-2.637-3.503-2.756-.851-.116-1.673.472-2.548 1.077l-.935.584a2.054 2.054 0 0 1-.327.132c-.547.155-1.927.245-2.708-.469-.909-.832-2.32-2.355-3.417-3.685-1.048-1.377-2.2-3.095-2.801-4.176-.508-.916-.083-2.197.201-2.672.056-.093.129-.185.211-.276l.824-.761c.012-.012.017-.027.028-.037.008-.008.021-.005.031-.012.744-.628 1.513-1.275 1.619-2.105.124-.976-.483-2.296-1.857-4.029l-.168-.216C11.281 2.249 9.995.6 8.147.872c-.727.108-1.376.356-2.045.776-.007.004-.011.012-.016.016s-.012.004-.017.008l-.932.691c-.009.005-.015.017-.024.025-.007.007-.017.008-.025.015a13.74 13.74 0 0 0-.323.28c-.945.843-2.992 3.289-1.596 7.815.901 2.923 2.76 6.333 5.388 9.883l-.025.021 1.449 1.805.012-.009c2.849 3.371 5.749 5.976 8.407 7.553 1.773 1.053 3.323 1.401 4.597 1.401 1.677 0 2.879-.603 3.481-.995l.379-.253c.043-.029.073-.071.104-.108l.825-.621c.009-.008.015-.019.024-.027.004-.004.011-.003.016-.007.587-.536.993-1.097 1.276-1.763.732-1.705-.579-3.339-1.445-4.42zm.465 4.002c-.22.517-.541.957-1.005 1.384l-1.228.924c-1.112.723-3.489 1.616-6.943-.435-2.657-1.577-5.583-4.244-8.461-7.712l-.779-.984c-2.711-3.595-4.617-7.037-5.517-9.955-1.169-3.793.304-5.828 1.291-6.707.1-.091.2-.175.299-.259l.004-.004.895-.663a4.067 4.067 0 0 1 1.628-.624c1.239-.187 2.247 1.12 2.987 2.069l.173.22C13 6.15 13.148 7.072 13.1 7.448c-.053.417-.688.952-1.248 1.423l-.079.067c-.003.003-.004.007-.007.009l-.012.007-.852.788c-.005.005-.008.012-.013.019s-.016.009-.021.016a3.007 3.007 0 0 0-.337.449c-.479.801-.931 2.457-.217 3.739.623 1.12 1.808 2.889 2.897 4.319 1.139 1.381 2.591 2.949 3.532 3.809.705.644 1.687.86 2.536.86.455 0 .872-.063 1.188-.152.167-.048.339-.117.516-.204.011-.005.016-.015.027-.021.005-.003.013-.001.019-.005l.989-.619c.032-.021.053-.049.08-.076l.012.013c.609-.423 1.304-.919 1.739-.847.385.047 1.26.417 2.799 2.36l.177.223c.749.935 1.776 2.215 1.297 3.333z"/>
        </symbol>
        <symbol id="icon-background" viewBox="0 0 31 32">
            <path d="M21.572 28.412c-3.638 1.758-7.087 3.921-11.11 3.544-4.196-.394-7.906-2.531-10.796-5.597-3.294-3.493-6.329-7.604-6.175-12.403C-6.342 8.754-4.119 3.082.492.667c4.335-2.27 9.048 1.947 13.926 2.332 5.514.435 11.608-3.386 15.962.024 4.788 3.75 7.387 10.955 5.393 16.701-1.891 5.45-9.007 6.178-14.202 8.688z"/>
        </symbol>
        <symbol id="icon-arrow" viewBox="0 0 38 32">
            <path d="M.624 17.218a2.134 2.134 0 0 1 0-3.017L14.2.625a2.134 2.134 0 0 1 3.017 3.017L5.149 15.71l12.068 12.068a2.134 2.134 0 0 1-3.017 3.017L.624 17.219zm37.268.625H2.133v-4.267h35.759v4.267z"/>
        </symbol>
        <symbol id="icon-science" viewBox="0 0 32 32">
            <path d="M16.061 1.4c-1.05 0-2.031.478-2.867 1.261s-1.551 1.874-2.148 3.195c-.125.277-.244.564-.359.861a16.087 16.087 0 0 0-.927-.12 13.895 13.895 0 0 0-1.054-.066c-1.026-.024-1.964.08-2.786.329-1.096.332-2 .943-2.525 1.852s-.601 1.998-.341 3.113c.26 1.115.847 2.28 1.693 3.457.178.247.367.494.567.742-.196.242-.385.489-.566.741-.846 1.177-1.433 2.342-1.693 3.457s-.184 2.204.341 3.113c.525.909 1.429 1.52 2.525 1.852s2.398.407 3.841.263c.302-.03.611-.071.926-.12.112.291.231.579.359.863.596 1.321 1.312 2.412 2.148 3.195s1.817 1.261 2.867 1.261 2.031-.478 2.866-1.261 1.551-1.874 2.148-3.195c.128-.284.248-.572.359-.862.314.049.623.09.925.12 1.442.144 2.745.07 3.841-.263s2.001-.943 2.526-1.852c.525-.909.601-1.998.341-3.113s-.847-2.28-1.693-3.457c-.182-.252-.371-.5-.567-.741.196-.242.385-.489.567-.742.846-1.177 1.433-2.342 1.693-3.457s.184-2.204-.341-3.113c-.525-.909-1.429-1.52-2.525-1.852-.822-.249-1.76-.353-2.786-.329-.342.008-.694.03-1.055.066a16.8 16.8 0 0 0-.926.12c-.111-.29-.231-.577-.359-.861-.596-1.321-1.312-2.412-2.148-3.195s-1.817-1.261-2.866-1.261zm0 1.168c.7 0 1.387.308 2.068.946s1.331 1.603 1.882 2.823c.09.199.175.4.255.603a24.805 24.805 0 0 0-4.205 1.364 24.805 24.805 0 0 0-4.205-1.364c.083-.207.167-.409.255-.603.551-1.22 1.201-2.185 1.882-2.823s1.368-.946 2.068-.946zM8.337 7.696a12.707 12.707 0 0 1 1.309.062c.213.021.43.048.652.08a24.722 24.722 0 0 0-.921 4.324 24.81 24.81 0 0 0-3.284 2.96 13.294 13.294 0 0 1-.395-.524c-.781-1.087-1.292-2.133-1.504-3.041s-.135-1.657.215-2.264c.35-.607.96-1.047 1.853-1.318.586-.178 1.287-.273 2.077-.281zm15.448 0c.789.007 1.491.103 2.077.281.893.271 1.503.711 1.853 1.318s.427 1.355.215 2.264c-.212.909-.723 1.954-1.504 3.041-.128.177-.26.352-.395.524a24.81 24.81 0 0 0-3.284-2.96 24.72 24.72 0 0 0-.922-4.324c.221-.032.438-.059.651-.08a11.984 11.984 0 0 1 1.309-.062zm-3.12.353c.311.965.568 2.029.76 3.169a31.692 31.692 0 0 0-3.884-2.243 22.647 22.647 0 0 1 3.124-.926zm-9.208 0c.991.213 2.041.523 3.123.926a31.805 31.805 0 0 0-3.883 2.242 22.64 22.64 0 0 1 .76-3.168zm4.604 1.529c.95.419 1.915.906 2.877 1.462s1.867 1.147 2.705 1.761c.112 1.033.173 2.112.173 3.223s-.06 2.189-.172 3.222c-.838.614-1.743 1.205-2.705 1.761s-1.927 1.043-2.877 1.462c-.951-.419-1.916-.907-2.878-1.462s-1.866-1.147-2.704-1.76a29.94 29.94 0 0 1 0-6.446c.838-.614 1.743-1.205 2.705-1.761s1.926-1.043 2.877-1.462zm.079 1.757-3.344 2.064 3.344 2.064 3.344-2.064-3.344-2.064zm-6.923 2.446a31.648 31.648 0 0 0 0 4.484 22.675 22.675 0 0 1-2.364-2.242 22.675 22.675 0 0 1 2.364-2.242zm13.688 0c.89.736 1.683 1.49 2.363 2.242a22.76 22.76 0 0 1-2.363 2.242 31.611 31.611 0 0 0-.001-4.483zm-10.862.525v4.075l3.512 2.167v-4.075l-3.512-2.168zm8.191.002-3.511 2.167v4.073l3.511-2.167v-4.073zM6.091 16.923a24.74 24.74 0 0 0 3.284 2.96c.196 1.56.51 3.016.921 4.323-.221.032-.438.059-.65.08-1.331.133-2.493.053-3.386-.218s-1.502-.712-1.853-1.318c-.35-.607-.427-1.355-.215-2.264s.723-1.954 1.504-3.041c.128-.177.259-.352.395-.523zm19.939 0c.138.175.27.349.395.523.781 1.087 1.292 2.133 1.504 3.041s.135 1.657-.215 2.264c-.35.606-.96 1.047-1.853 1.318s-2.054.351-3.386.218a15.79 15.79 0 0 1-.65-.08c.412-1.308.725-2.764.921-4.324a24.794 24.794 0 0 0 3.283-2.959zm-4.605 3.905a22.655 22.655 0 0 1-.76 3.169 22.688 22.688 0 0 1-3.124-.926 32.057 32.057 0 0 0 3.884-2.242zm-10.727.001a32.168 32.168 0 0 0 3.883 2.242 22.635 22.635 0 0 1-3.123.926 22.503 22.503 0 0 1-.759-3.168zm5.398.053.043.026.042-.026h-.085zm-.035 2.861a24.725 24.725 0 0 0 4.206 1.364 14.57 14.57 0 0 1-.256.604c-.551 1.22-1.201 2.185-1.882 2.823s-1.368.946-2.068.946-1.387-.308-2.068-.946-1.331-1.603-1.882-2.823c-.09-.2-.175-.401-.256-.604a24.805 24.805 0 0 0 4.205-1.364z"/>
        </symbol>
        <symbol id="icon-makeup" viewBox="0 0 40 32">
            <path d="M12.337 10.242H-.173a.68.68 0 0 0-.695.667v4.001a.68.68 0 0 0 .695.667h.695v15.337a.68.68 0 0 0 .695.667h9.73a.68.68 0 0 0 .695-.667V15.577h.695a.68.68 0 0 0 .695-.667v-4.001a.68.68 0 0 0-.695-.667zm-7.645 12.67v-1.334h4.17v-1.334h-4.17V18.91h5.56v8.669h-5.56v-3.334h1.39v-1.334h-1.39zm5.56-5.334H3.997a.68.68 0 0 0-.695.667v10.002a.68.68 0 0 0 .695.667h6.255v1.334h-8.34v-14.67h8.34v2zm1.39-3.335H.522v-2.667h11.12v2.667zm9.904-3.876V5.492a.69.69 0 0 0-.695-.687h-.695V1.372h1.39V-.001h-7.645v1.373h4.865v3.433h-.695a.69.69 0 0 0-.695.687v4.875c-1.584.319-2.78 1.705-2.78 3.363v17.163c0 .38.311.687.695.687h8.34a.69.69 0 0 0 .695-.687V13.73c0-1.657-1.196-3.044-2.78-3.363zm-2.78-4.188h1.39v4.119h-1.39V6.179zm-.695 5.492h2.78c1.15 0 2.085.924 2.085 2.06v.687h-6.95v-.687c0-1.136.936-2.06 2.085-2.06zm4.865 15.791h-6.95v-1.373h2.78v-1.373h-2.78v-8.925h6.95v11.671zm-6.95 2.746v-1.373h6.95v1.373h-6.95zM39.313 9.389H27.584a.662.662 0 0 0-.652.672v20.847c0 .372.291.672.652.672h11.729c.36 0 .652-.301.652-.672V10.061a.661.661 0 0 0-.652-.672zm-.652 20.847H28.236V10.734h10.425v19.502z"/>
            <path d="M9.557 23.045H7.819v.854h1.738v-.854zm12.163 1.708h-1.738v1.707h1.738v-1.707zm-2.172-1.707c1.677 0 3.041-1.34 3.041-2.987s-1.364-2.987-3.041-2.987c-1.677 0-3.041 1.34-3.041 2.987s1.364 2.987 3.041 2.987zm0-4.482c.838 0 1.52.67 1.52 1.494s-.682 1.494-1.52 1.494-1.52-.67-1.52-1.494.682-1.494 1.52-1.494zm12.271-2.347h3.258c1.258 0 2.281-.957 2.281-2.134s-1.023-2.134-2.281-2.134h-3.258c-1.258 0-2.28.957-2.28 2.134s1.023 2.134 2.28 2.134zm4.235-2.134c0 .504-.438.915-.977.915H34.1v-1.829h.977c.539 0 .977.41.977.915zm-4.235-.914h.977v1.829h-.977c-.539 0-.977-.41-.977-.915s.439-.915.977-.915zm0 9.876h3.258c1.258 0 2.281-1.149 2.281-2.561s-1.023-2.561-2.281-2.561h-3.258c-1.258 0-2.28 1.149-2.28 2.561s1.023 2.561 2.28 2.561zm4.235-2.56c0 .605-.438 1.097-.977 1.097H34.1v-2.195h.977c.539 0 .977.492.977 1.097zm-4.235-1.098h.977v2.195h-.977c-.539 0-.977-.492-.977-1.097s.439-1.097.977-1.097zm0 9.633h3.258c1.258 0 2.281-1.149 2.281-2.561s-1.023-2.561-2.281-2.561h-3.258c-1.258 0-2.28 1.149-2.28 2.561s1.023 2.561 2.28 2.561zm4.235-2.56c0 .605-.438 1.097-.977 1.097H34.1v-2.195h.977c.539 0 .977.492.977 1.097zm-4.235-1.098h.977v2.195h-.977c-.539 0-.977-.492-.977-1.097s.439-1.097.977-1.097z"/>
        </symbol>
        <symbol id="icon-crown" viewBox="0 0 38 32">
            <path d="M37.347 7.45c-.337-.306-.745-.502-1.178-.566s-.873.004-1.272.2l-8.417 4.107c-.037.022-.078.036-.12.041s-.085 0-.125-.014-.078-.036-.11-.066a.34.34 0 0 1-.078-.108L21.13 1.327c-.199-.402-.493-.737-.851-.97S19.513 0 19.097 0s-.824.123-1.182.357a2.46 2.46 0 0 0-.851.97l-4.917 9.717c-.019.041-.046.078-.078.108s-.07.052-.11.066c-.04.014-.083.018-.125.014s-.083-.019-.12-.041L3.297 7.084c-.398-.198-.838-.27-1.271-.207s-.841.259-1.178.564C.511 7.747.259 8.15.12 8.605s-.159.944-.057 1.412l4.25 19.855c.072.336.205.652.391.929s.422.51.692.685c.356.24.766.367 1.183.367.214-.002.426-.033.633-.092a40.736 40.736 0 0 1 23.75-.018c.303.096.621.124.934.081s.615-.155.888-.33c.273-.175.51-.409.698-.687s.323-.597.396-.934l4.233-19.855c.106-.464.09-.951-.046-1.405s-.386-.857-.721-1.161zM36.18 9.504l-4.25 19.855a.424.424 0 0 1-.15.238.388.388 0 0 1-.267.037 42.554 42.554 0 0 0-24.833 0 .31.31 0 0 1-.263-.038c-.039-.026-.073-.06-.099-.101s-.045-.087-.055-.136L2.013 9.504a.417.417 0 0 1 .071-.314c.032-.044.072-.079.117-.104s.095-.039.146-.04l.133.037 8.433 4.125c.532.263 1.134.297 1.687.093s1.016-.63 1.296-1.193l4.917-9.717a.337.337 0 0 1 .117-.141.297.297 0 0 1 .334 0c.05.034.09.083.117.141l4.917 9.717c.28.563.743.989 1.296 1.193s1.156.171 1.688-.093l8.433-4.125c.057-.028.12-.037.182-.028s.12.038.168.083c.049.043.086.1.106.165s.024.135.011.202zM25.43 23.437c-.028.271-.146.521-.33.703s-.422.284-.67.287h-.1a47.572 47.572 0 0 0-10.467 0c-.263.031-.526-.054-.732-.236s-.338-.447-.368-.736c-.023-.291.058-.581.226-.807s.41-.371.674-.403a46.798 46.798 0 0 1 10.867 0c.261.032.5.174.668.397s.251.507.232.795z"/>
        </symbol>
        <symbol id="icon-close" viewBox="0 0 32 32">
           <path d="M1 1L9 9L17 1" stroke="white" stroke-width="2" stroke-linecap="round"/>
            <path d="M1 17L9 9L17 17" stroke="white" stroke-width="2" stroke-linecap="round"/>
        </symbol>
        <symbol id="icon-close-dark" viewBox="0 0 32 32">
            <path fill="none" stroke="#011c44" style="stroke: var(--color1, #011c44)" stroke-linejoin="miter" stroke-linecap="round" stroke-miterlimit="4" stroke-width="4.5714" d="M2.286 2.286l13.714 13.714 13.714-13.714"></path>
            <path fill="none" stroke="#011c44" style="stroke: var(--color1, #011c44)" stroke-linejoin="miter" stroke-linecap="round" stroke-miterlimit="4" stroke-width="4.5714" d="M2.286 29.714l13.714-13.714 13.714 13.714"></path>
        </symbol>
        <symbol id="icon-button-menu" viewBox="0 0 46 32">
            <path fill="#faf4ea" style="fill: var(--color1, #faf4ea)" d="M45.714 29.726c0 1.257-1.019 2.274-2.274 2.274h-18.309c-1.256 0-2.274-1.018-2.274-2.274s1.018-2.274 2.274-2.274h18.309c1.257 0 2.274 1.017 2.274 2.274zM45.714 16c0 1.257-1.019 2.274-2.274 2.274h-41.166c-1.256 0-2.274-1.018-2.274-2.274s1.018-2.274 2.274-2.274h41.166c1.257 0 2.274 1.019 2.274 2.274zM43.44 4.549c1.256 0 2.274-1.018 2.274-2.274s-1.018-2.274-2.274-2.274v0h-27.451c-1.256 0-2.274 1.018-2.274 2.274s1.018 2.274 2.274 2.274v0h27.451z"></path>
        </symbol>
    </defs>
</svg>